# MagicaVoxel @ Ephtracy

# group
o 

# material
mtllib Person.mtl
usemtl palette

# normals
vn -1 0 0
vn 1 0 0
vn 0 0 1
vn 0 0 -1
vn 0 -1 0
vn 0 1 0

# texcoords
vt 0.0332031 0.5
vt 0.373047 0.5
vt 0.876953 0.5
vt 0.880859 0.5
vt 0.958984 0.5

# verts
v -0.3 0.3 0.3
v -0.3 0.3 -0.3
v -0.3 0.4 0.2
v -0.3 0.4 0.1
v -0.3 0.4 -0.1
v -0.3 0.4 -0.2
v -0.3 0.5 0.2
v -0.3 0.5 0.1
v -0.3 0.5 -0.1
v -0.3 0.5 -0.2
v -0.3 0.6 0.2
v -0.3 0.6 0.1
v -0.3 0.6 -0.1
v -0.3 0.6 -0.2
v -0.3 0.7 0.3
v -0.3 0.7 -0.3
v -0.3 0.8 0.3
v -0.3 0.8 -0.3
v -0.2 0.2 0.3
v -0.2 0.2 -0.3
v -0.2 0.3 0.4
v -0.2 0.3 0.3
v -0.2 0.3 -0.3
v -0.2 0.3 -0.4
v -0.2 0.7 0.4
v -0.2 0.7 0.3
v -0.2 0.7 -0.3
v -0.2 0.7 -0.4
v -0.2 0.8 0.4
v -0.2 0.8 0.3
v -0.2 0.8 -0.3
v -0.2 0.8 -0.4
v -0.2 0.9 0.3
v -0.2 0.9 -0.3
v 0 0 0.2
v 0 0 0.1
v 0 0 -0.1
v 0 0 -0.2
v 0 0.1 0.2
v 0 0.1 0.1
v 0 0.1 -0.1
v 0 0.1 -0.2
v 0 0.2 0.5
v 0 0.2 0.4
v 0 0.2 0.2
v 0 0.2 0.1
v 0 0.2 -0.1
v 0 0.2 -0.2
v 0 0.2 -0.4
v 0 0.2 -0.5
v 0 0.3 0.4
v 0 0.3 -0.4
v 0 0.4 0.5
v 0 0.4 0.4
v 0 0.4 -0.4
v 0 0.4 -0.5
v 0 0.5 0.5
v 0 0.5 0.4
v 0 0.5 -0.4
v 0 0.5 -0.5
v 0.1 0 0.2
v 0.1 0 0.1
v 0.1 0 -0.1
v 0.1 0 -0.2
v 0.1 0.1 0.2
v 0.1 0.1 0.1
v 0.1 0.1 -0.1
v 0.1 0.1 -0.2
v 0.1 0.2 0.5
v 0.1 0.2 0.4
v 0.1 0.2 0.2
v 0.1 0.2 0.1
v 0.1 0.2 -0.1
v 0.1 0.2 -0.2
v 0.1 0.2 -0.4
v 0.1 0.2 -0.5
v 0.1 0.3 0.4
v 0.1 0.3 -0.4
v 0.1 0.4 0.5
v 0.1 0.4 0.4
v 0.1 0.4 -0.4
v 0.1 0.4 -0.5
v 0.1 0.5 0.5
v 0.1 0.5 0.4
v 0.1 0.5 -0.4
v 0.1 0.5 -0.5
v 0.3 0.2 0.3
v 0.3 0.2 -0.3
v 0.3 0.3 0.4
v 0.3 0.3 0.3
v 0.3 0.3 -0.3
v 0.3 0.3 -0.4
v 0.3 0.4 0.4
v 0.3 0.4 0.3
v 0.3 0.4 -0.3
v 0.3 0.4 -0.4
v 0.3 0.8 0.4
v 0.3 0.8 0.3
v 0.3 0.8 -0.3
v 0.3 0.8 -0.4
v 0.3 0.9 0.3
v 0.3 0.9 -0.3
v 0.4 0.3 0.3
v 0.4 0.3 -0.3
v 0.4 0.4 0.3
v 0.4 0.4 -0.3
v 0.4 0.8 0.3
v 0.4 0.8 -0.3
v 0 0.2 0.5
v 0 0.4 0.5
v 0 0.5 0.5
v 0.1 0.2 0.5
v 0.1 0.4 0.5
v 0.1 0.5 0.5
v -0.2 0.3 0.4
v -0.2 0.7 0.4
v -0.2 0.8 0.4
v 0 0.3 0.4
v 0 0.4 0.4
v 0 0.5 0.4
v 0 0.6 0.4
v 0 0.7 0.4
v 0.1 0.3 0.4
v 0.1 0.4 0.4
v 0.1 0.5 0.4
v 0.1 0.6 0.4
v 0.2 0.4 0.4
v 0.2 0.5 0.4
v 0.3 0.3 0.4
v 0.3 0.4 0.4
v 0.3 0.8 0.4
v -0.3 0.3 0.3
v -0.3 0.7 0.3
v -0.3 0.8 0.3
v -0.2 0.2 0.3
v -0.2 0.3 0.3
v -0.2 0.7 0.3
v -0.2 0.8 0.3
v -0.2 0.9 0.3
v 0 0.3 0.3
v 0.1 0.3 0.3
v 0.3 0.2 0.3
v 0.3 0.3 0.3
v 0.3 0.4 0.3
v 0.3 0.8 0.3
v 0.3 0.9 0.3
v 0.4 0.3 0.3
v 0.4 0.4 0.3
v 0.4 0.8 0.3
v 0 0 0.2
v 0 0.1 0.2
v 0 0.2 0.2
v 0.1 0 0.2
v 0.1 0.1 0.2
v 0.1 0.2 0.2
v 0 0 -0.1
v 0 0.1 -0.1
v 0 0.2 -0.1
v 0.1 0 -0.1
v 0.1 0.1 -0.1
v 0.1 0.2 -0.1
v 0 0.2 -0.4
v 0 0.3 -0.4
v 0.1 0.2 -0.4
v 0.1 0.3 -0.4
v 0 0.2 0.4
v 0 0.3 0.4
v 0.1 0.2 0.4
v 0.1 0.3 0.4
v 0 0 0.1
v 0 0.1 0.1
v 0 0.2 0.1
v 0.1 0 0.1
v 0.1 0.1 0.1
v 0.1 0.2 0.1
v 0 0 -0.2
v 0 0.1 -0.2
v 0 0.2 -0.2
v 0.1 0 -0.2
v 0.1 0.1 -0.2
v 0.1 0.2 -0.2
v -0.3 0.3 -0.3
v -0.3 0.7 -0.3
v -0.3 0.8 -0.3
v -0.2 0.2 -0.3
v -0.2 0.3 -0.3
v -0.2 0.7 -0.3
v -0.2 0.8 -0.3
v -0.2 0.9 -0.3
v 0 0.3 -0.3
v 0.1 0.3 -0.3
v 0.3 0.2 -0.3
v 0.3 0.3 -0.3
v 0.3 0.4 -0.3
v 0.3 0.8 -0.3
v 0.3 0.9 -0.3
v 0.4 0.3 -0.3
v 0.4 0.4 -0.3
v 0.4 0.8 -0.3
v -0.2 0.3 -0.4
v -0.2 0.7 -0.4
v -0.2 0.8 -0.4
v 0 0.3 -0.4
v 0 0.4 -0.4
v 0 0.5 -0.4
v 0 0.6 -0.4
v 0 0.7 -0.4
v 0.1 0.3 -0.4
v 0.1 0.4 -0.4
v 0.1 0.5 -0.4
v 0.1 0.6 -0.4
v 0.2 0.4 -0.4
v 0.2 0.5 -0.4
v 0.3 0.3 -0.4
v 0.3 0.4 -0.4
v 0.3 0.8 -0.4
v 0 0.2 -0.5
v 0 0.4 -0.5
v 0 0.5 -0.5
v 0.1 0.2 -0.5
v 0.1 0.4 -0.5
v 0.1 0.5 -0.5
v 0 0 0.2
v 0.1 0 0.2
v 0 0 0.1
v 0.1 0 0.1
v 0 0 -0.1
v 0.1 0 -0.1
v 0 0 -0.2
v 0.1 0 -0.2
v 0 0.2 0.5
v 0.1 0.2 0.5
v 0 0.2 0.4
v 0.1 0.2 0.4
v -0.2 0.2 0.3
v 0.3 0.2 0.3
v 0 0.2 0.2
v 0.1 0.2 0.2
v 0 0.2 0.1
v 0.1 0.2 0.1
v 0 0.2 -0.1
v 0.1 0.2 -0.1
v 0 0.2 -0.2
v 0.1 0.2 -0.2
v -0.2 0.2 -0.3
v 0.3 0.2 -0.3
v 0 0.2 -0.4
v 0.1 0.2 -0.4
v 0 0.2 -0.5
v 0.1 0.2 -0.5
v -0.2 0.3 0.4
v 0 0.3 0.4
v 0.1 0.3 0.4
v 0.3 0.3 0.4
v -0.3 0.3 0.3
v -0.2 0.3 0.3
v 0 0.3 0.3
v 0.1 0.3 0.3
v 0.3 0.3 0.3
v 0.4 0.3 0.3
v -0.3 0.3 -0.3
v -0.2 0.3 -0.3
v 0 0.3 -0.3
v 0.1 0.3 -0.3
v 0.3 0.3 -0.3
v 0.4 0.3 -0.3
v -0.2 0.3 -0.4
v 0 0.3 -0.4
v 0.1 0.3 -0.4
v 0.3 0.3 -0.4
v 0 0.5 0.5
v 0.1 0.5 0.5
v 0 0.5 0.4
v 0.1 0.5 0.4
v 0 0.5 -0.4
v 0.1 0.5 -0.4
v 0 0.5 -0.5
v 0.1 0.5 -0.5
v -0.2 0.8 0.4
v 0.3 0.8 0.4
v -0.3 0.8 0.3
v -0.2 0.8 0.3
v 0.3 0.8 0.3
v 0.4 0.8 0.3
v -0.3 0.8 -0.3
v -0.2 0.8 -0.3
v 0.3 0.8 -0.3
v 0.4 0.8 -0.3
v -0.2 0.8 -0.4
v 0.3 0.8 -0.4
v -0.2 0.9 0.3
v 0.3 0.9 0.3
v -0.2 0.9 -0.3
v 0.3 0.9 -0.3

# faces
f 3/1/1 2/1/1 1/1/1
f 4/1/1 2/1/1 3/1/1
f 5/1/1 2/1/1 4/1/1
f 6/1/1 2/1/1 5/1/1
f 7/1/1 3/1/1 1/1/1
f 7/3/1 4/3/1 3/3/1
f 8/1/1 5/1/1 4/1/1
f 8/3/1 4/3/1 7/3/1
f 9/3/1 6/3/1 5/3/1
f 9/1/1 5/1/1 8/1/1
f 10/1/1 2/1/1 6/1/1
f 10/3/1 6/3/1 9/3/1
f 11/5/1 8/5/1 7/5/1
f 11/1/1 7/1/1 1/1/1
f 12/1/1 9/1/1 8/1/1
f 12/5/1 8/5/1 11/5/1
f 13/5/1 10/5/1 9/5/1
f 13/1/1 9/1/1 12/1/1
f 14/1/1 2/1/1 10/1/1
f 14/5/1 10/5/1 13/5/1
f 15/1/1 11/1/1 1/1/1
f 15/1/1 13/1/1 12/1/1
f 15/1/1 14/1/1 13/1/1
f 15/1/1 12/1/1 11/1/1
f 16/1/1 2/1/1 14/1/1
f 16/1/1 14/1/1 15/1/1
f 17/2/1 16/2/1 15/2/1
f 18/2/1 16/2/1 17/2/1
f 22/4/1 20/4/1 19/4/1
f 23/4/1 20/4/1 22/4/1
f 25/1/1 22/1/1 21/1/1
f 26/1/1 22/1/1 25/1/1
f 27/1/1 24/1/1 23/1/1
f 28/1/1 24/1/1 27/1/1
f 29/2/1 26/2/1 25/2/1
f 30/2/1 26/2/1 29/2/1
f 31/2/1 28/2/1 27/2/1
f 32/2/1 28/2/1 31/2/1
f 33/2/1 31/2/1 30/2/1
f 34/2/1 31/2/1 33/2/1
f 39/1/1 36/1/1 35/1/1
f 40/1/1 36/1/1 39/1/1
f 41/1/1 38/1/1 37/1/1
f 42/1/1 38/1/1 41/1/1
f 45/4/1 40/4/1 39/4/1
f 46/4/1 40/4/1 45/4/1
f 47/4/1 42/4/1 41/4/1
f 48/4/1 42/4/1 47/4/1
f 51/1/1 44/1/1 43/1/1
f 52/1/1 50/1/1 49/1/1
f 53/1/1 51/1/1 43/1/1
f 54/1/1 51/1/1 53/1/1
f 55/1/1 50/1/1 52/1/1
f 56/1/1 50/1/1 55/1/1
f 57/4/1 54/4/1 53/4/1
f 58/4/1 54/4/1 57/4/1
f 59/4/1 56/4/1 55/4/1
f 60/4/1 56/4/1 59/4/1
f 61/1/2 62/1/2 65/1/2
f 65/1/2 62/1/2 66/1/2
f 63/1/2 64/1/2 67/1/2
f 67/1/2 64/1/2 68/1/2
f 65/4/2 66/4/2 71/4/2
f 71/4/2 66/4/2 72/4/2
f 67/4/2 68/4/2 73/4/2
f 73/4/2 68/4/2 74/4/2
f 69/1/2 70/1/2 77/1/2
f 75/1/2 76/1/2 78/1/2
f 69/1/2 77/1/2 79/1/2
f 79/1/2 77/1/2 80/1/2
f 78/1/2 76/1/2 81/1/2
f 81/1/2 76/1/2 82/1/2
f 79/4/2 80/4/2 83/4/2
f 83/4/2 80/4/2 84/4/2
f 81/4/2 82/4/2 85/4/2
f 85/4/2 82/4/2 86/4/2
f 87/4/2 88/4/2 90/4/2
f 90/4/2 88/4/2 91/4/2
f 89/1/2 90/1/2 93/1/2
f 93/1/2 90/1/2 94/1/2
f 91/1/2 92/1/2 95/1/2
f 95/1/2 92/1/2 96/1/2
f 93/2/2 94/2/2 97/2/2
f 97/2/2 94/2/2 98/2/2
f 95/2/2 96/2/2 99/2/2
f 99/2/2 96/2/2 100/2/2
f 98/2/2 99/2/2 101/2/2
f 101/2/2 99/2/2 102/2/2
f 103/1/2 104/1/2 105/1/2
f 105/1/2 104/1/2 106/1/2
f 105/2/2 106/2/2 107/2/2
f 107/2/2 106/2/2 108/2/2
f 112/1/3 110/1/3 109/1/3
f 113/4/3 111/4/3 110/4/3
f 113/1/3 110/1/3 112/1/3
f 114/4/3 111/4/3 113/4/3
f 118/1/3 116/1/3 115/1/3
f 119/1/3 116/1/3 118/1/3
f 120/1/3 116/1/3 119/1/3
f 121/1/3 116/1/3 120/1/3
f 122/2/3 117/2/3 116/2/3
f 122/1/3 116/1/3 121/1/3
f 125/1/3 121/1/3 120/1/3
f 126/2/3 122/2/3 121/2/3
f 126/1/3 121/1/3 125/1/3
f 127/1/3 124/1/3 123/1/3
f 127/1/3 125/1/3 124/1/3
f 128/2/3 126/2/3 125/2/3
f 128/1/3 125/1/3 127/1/3
f 129/1/3 127/1/3 123/1/3
f 130/2/3 128/2/3 127/2/3
f 130/1/3 127/1/3 129/1/3
f 131/2/3 122/2/3 126/2/3
f 131/2/3 128/2/3 130/2/3
f 131/2/3 117/2/3 122/2/3
f 131/2/3 126/2/3 128/2/3
f 136/1/3 133/1/3 132/1/3
f 137/2/3 134/2/3 133/2/3
f 137/1/3 133/1/3 136/1/3
f 138/2/3 134/2/3 137/2/3
f 140/4/3 136/4/3 135/4/3
f 141/4/3 140/4/3 135/4/3
f 142/4/3 141/4/3 135/4/3
f 143/4/3 141/4/3 142/4/3
f 145/2/3 139/2/3 138/2/3
f 146/2/3 139/2/3 145/2/3
f 147/1/3 144/1/3 143/1/3
f 148/2/3 145/2/3 144/2/3
f 148/1/3 144/1/3 147/1/3
f 149/2/3 145/2/3 148/2/3
f 153/1/3 151/1/3 150/1/3
f 154/4/3 152/4/3 151/4/3
f 154/1/3 151/1/3 153/1/3
f 155/4/3 152/4/3 154/4/3
f 159/1/3 157/1/3 156/1/3
f 160/4/3 158/4/3 157/4/3
f 160/1/3 157/1/3 159/1/3
f 161/4/3 158/4/3 160/4/3
f 164/1/3 163/1/3 162/1/3
f 165/1/3 163/1/3 164/1/3
f 166/1/4 167/1/4 168/1/4
f 168/1/4 167/1/4 169/1/4
f 170/1/4 171/1/4 173/1/4
f 171/4/4 172/4/4 174/4/4
f 173/1/4 171/1/4 174/1/4
f 174/4/4 172/4/4 175/4/4
f 176/1/4 177/1/4 179/1/4
f 177/4/4 178/4/4 180/4/4
f 179/1/4 177/1/4 180/1/4
f 180/4/4 178/4/4 181/4/4
f 182/1/4 183/1/4 186/1/4
f 183/2/4 184/2/4 187/2/4
f 186/1/4 183/1/4 187/1/4
f 187/2/4 184/2/4 188/2/4
f 185/4/4 186/4/4 190/4/4
f 185/4/4 190/4/4 191/4/4
f 185/4/4 191/4/4 192/4/4
f 192/4/4 191/4/4 193/4/4
f 188/2/4 189/2/4 195/2/4
f 195/2/4 189/2/4 196/2/4
f 193/1/4 194/1/4 197/1/4
f 194/2/4 195/2/4 198/2/4
f 197/1/4 194/1/4 198/1/4
f 198/2/4 195/2/4 199/2/4
f 200/1/4 201/1/4 203/1/4
f 203/1/4 201/1/4 204/1/4
f 204/1/4 201/1/4 205/1/4
f 205/1/4 201/1/4 206/1/4
f 201/2/4 202/2/4 207/2/4
f 206/1/4 201/1/4 207/1/4
f 205/1/4 206/1/4 210/1/4
f 206/2/4 207/2/4 211/2/4
f 210/1/4 206/1/4 211/1/4
f 208/1/4 209/1/4 212/1/4
f 209/1/4 210/1/4 212/1/4
f 210/2/4 211/2/4 213/2/4
f 212/1/4 210/1/4 213/1/4
f 208/1/4 212/1/4 214/1/4
f 212/2/4 213/2/4 215/2/4
f 214/1/4 212/1/4 215/1/4
f 211/2/4 207/2/4 216/2/4
f 215/2/4 213/2/4 216/2/4
f 207/2/4 202/2/4 216/2/4
f 213/2/4 211/2/4 216/2/4
f 217/1/4 218/1/4 220/1/4
f 218/4/4 219/4/4 221/4/4
f 220/1/4 218/1/4 221/1/4
f 221/4/4 219/4/4 222/4/4
f 225/1/5 224/1/5 223/1/5
f 226/1/5 224/1/5 225/1/5
f 229/1/5 228/1/5 227/1/5
f 230/1/5 228/1/5 229/1/5
f 233/1/5 232/1/5 231/1/5
f 234/1/5 232/1/5 233/1/5
f 237/4/5 236/4/5 235/4/5
f 238/4/5 236/4/5 237/4/5
f 239/4/5 237/4/5 235/4/5
f 240/4/5 236/4/5 238/4/5
f 241/4/5 239/4/5 235/4/5
f 241/4/5 240/4/5 239/4/5
f 242/4/5 236/4/5 240/4/5
f 242/4/5 240/4/5 241/4/5
f 243/4/5 241/4/5 235/4/5
f 244/4/5 236/4/5 242/4/5
f 245/4/5 243/4/5 235/4/5
f 245/4/5 244/4/5 243/4/5
f 246/4/5 236/4/5 244/4/5
f 246/4/5 244/4/5 245/4/5
f 249/1/5 248/1/5 247/1/5
f 250/1/5 248/1/5 249/1/5
f 256/1/5 252/1/5 251/1/5
f 257/4/5 253/4/5 252/4/5
f 257/1/5 252/1/5 256/1/5
f 258/1/5 254/1/5 253/1/5
f 258/4/5 253/4/5 257/4/5
f 259/1/5 254/1/5 258/1/5
f 261/1/5 256/1/5 255/1/5
f 262/1/5 256/1/5 261/1/5
f 265/1/5 260/1/5 259/1/5
f 266/1/5 260/1/5 265/1/5
f 267/1/5 263/1/5 262/1/5
f 268/4/5 264/4/5 263/4/5
f 268/1/5 263/1/5 267/1/5
f 269/1/5 265/1/5 264/1/5
f 269/4/5 264/4/5 268/4/5
f 270/1/5 265/1/5 269/1/5
f 271/4/6 272/4/6 273/4/6
f 273/4/6 272/4/6 274/4/6
f 275/4/6 276/4/6 277/4/6
f 277/4/6 276/4/6 278/4/6
f 279/2/6 280/2/6 282/2/6
f 282/2/6 280/2/6 283/2/6
f 281/2/6 282/2/6 285/2/6
f 285/2/6 282/2/6 286/2/6
f 283/2/6 284/2/6 287/2/6
f 287/2/6 284/2/6 288/2/6
f 286/2/6 287/2/6 289/2/6
f 289/2/6 287/2/6 290/2/6
f 291/2/6 292/2/6 293/2/6
f 293/2/6 292/2/6 294/2/6
